<?xml version="1.0" encoding="UTF-8" standalone="no"?>
<!-- Created with Inkscape (http://www.inkscape.org/) -->

<svg
   xmlns:dc="http://purl.org/dc/elements/1.1/"
   xmlns:cc="http://creativecommons.org/ns#"
   xmlns:rdf="http://www.w3.org/1999/02/22-rdf-syntax-ns#"
   xmlns:svg="http://www.w3.org/2000/svg"
   xmlns="http://www.w3.org/2000/svg"
   xmlns:sodipodi="http://sodipodi.sourceforge.net/DTD/sodipodi-0.dtd"
   xmlns:inkscape="http://www.inkscape.org/namespaces/inkscape"
   version="1.1"
   id="svg2"
   width="72"
   height="72"
   viewBox="0 0 72 72"
   sodipodi:docname="biiiigggg.png"
   inkscape:version="0.92.5 (2060ec1f9f, 2020-04-08)">
  <metadata
     id="metadata8">
    <rdf:RDF>
      <cc:Work
         rdf:about="">
        <dc:format>image/svg+xml</dc:format>
        <dc:type
           rdf:resource="http://purl.org/dc/dcmitype/StillImage" />
        <dc:title></dc:title>
      </cc:Work>
    </rdf:RDF>
  </metadata>
  <defs
     id="defs6" />
  <sodipodi:namedview
     pagecolor="#ffffff"
     bordercolor="#666666"
     borderopacity="1"
     objecttolerance="10"
     gridtolerance="10"
     guidetolerance="10"
     inkscape:pageopacity="0"
     inkscape:pageshadow="2"
     inkscape:window-width="1920"
     inkscape:window-height="956"
     id="namedview4"
     showgrid="false"
     fit-margin-top="5"
     fit-margin-left="1"
     fit-margin-right="1"
     fit-margin-bottom="5"
     inkscape:zoom="4.17193"
     inkscape:cx="12.269759"
     inkscape:cy="9.7460739"
     inkscape:window-x="0"
     inkscape:window-y="27"
     inkscape:window-maximized="0"
     inkscape:current-layer="svg2" />
  <path
     id="path50"
     style="fill:#ce4000;fill-opacity:1;stroke-width:0.01563131"
     d="m 47.27825,60.17278 c -2.778747,-0.3 -4.390636,-4 -2.485233,-6.1 5.644497,-5.7 11.299007,-11.3 16.962333,-17 -1.241131,-1.9 -3.455222,-3.5 -5.036924,-5.3 -4.052953,-4.1 -8.290408,-8.1 -12.231836,-12.3 -1.577133,-2.4 0.519364,-5.9 3.287653,-5.7 2.195854,-0.1 3.343417,2 4.824295,3.3 5.892458,5.9 11.827992,11.8 17.692218,17.7 1.243152,1.6 0.783284,4.1 -0.842879,5.2 -6.523443,6.5 -12.996452,13.1 -19.574484,19.6 -0.754209,0.5 -1.704536,0.8 -2.595143,0.6 z m -23.637843,0.02303 c -1.918255,-0.4 -2.95977,-2.2 -4.366918,-3.4 -5.871027,-5.9 -11.7755101,-11.8 -17.6303941,-17.7 -1.10483701,-1.5 -0.74458901,-3.8 0.76226,-5 6.583276,-6.6 13.0897021,-13.2 19.7258671,-19.7 2.144165,-1.6 5.531747,0 5.848905,2.6 0.539666,2.3 -1.809798,3.8 -3.185632,5.3 -4.862196,4.9 -9.724755,9.7 -14.587163,14.6 1.400267,1.9 3.431154,3.5 5.053464,5.2 4.071794,4.2 8.360453,8.2 12.304693,12.5 1.589162,2.6 -0.944899,6.1 -3.925082,5.6 z"
     inkscape:connector-curvature="0" />
</svg>
