<?xml version="1.0" encoding="UTF-8" standalone="no"?>
<!-- Created with Inkscape (http://www.inkscape.org/) -->

<svg
   xmlns:dc="http://purl.org/dc/elements/1.1/"
   xmlns:cc="http://creativecommons.org/ns#"
   xmlns:rdf="http://www.w3.org/1999/02/22-rdf-syntax-ns#"
   xmlns:svg="http://www.w3.org/2000/svg"
   xmlns="http://www.w3.org/2000/svg"
   xmlns:sodipodi="http://sodipodi.sourceforge.net/DTD/sodipodi-0.dtd"
   xmlns:inkscape="http://www.inkscape.org/namespaces/inkscape"
   version="1.1"
   id="svg815"
   width="512"
   height="512"
   viewBox="0 0 512 512"
   sodipodi:docname="php.svg"
   inkscape:version="0.92.5 (2060ec1f9f, 2020-04-08)">
  <metadata
     id="metadata821">
    <rdf:RDF>
      <cc:Work
         rdf:about="">
        <dc:format>image/svg+xml</dc:format>
        <dc:type
           rdf:resource="http://purl.org/dc/dcmitype/StillImage" />
        <dc:title />
      </cc:Work>
    </rdf:RDF>
  </metadata>
  <defs
     id="defs819" />
  <sodipodi:namedview
     pagecolor="#ffffff"
     bordercolor="#666666"
     borderopacity="1"
     objecttolerance="10"
     gridtolerance="10"
     guidetolerance="10"
     inkscape:pageopacity="0"
     inkscape:pageshadow="2"
     inkscape:window-width="1920"
     inkscape:window-height="956"
     id="namedview817"
     showgrid="false"
     inkscape:zoom="0.044194174"
     inkscape:cx="1923.6221"
     inkscape:cy="-326.29756"
     inkscape:window-x="0"
     inkscape:window-y="27"
     inkscape:window-maximized="0"
     inkscape:current-layer="svg815" />
  <path
     style="fill:#b068d1;stroke-width:1.13976645;fill-opacity:1"
     d="m 17.905273,419.81492 c 0.676456,-4.25843 34.385096,-259.01601 34.385096,-259.86846 0,-0.3755 20.658047,-0.46105 45.906833,-0.18997 43.472428,0.46661 46.289868,0.6488 53.128668,3.4471 18.4576,7.55079 29.88401,22.7458 34.9023,46.4137 4.72761,22.29695 1.50116,57.82307 -7.46073,82.15044 -8.7714,23.8102 -23.98846,43.96834 -39.68579,52.57232 -11.18805,6.13231 -17.4125,7.23094 -45.828263,8.08883 l -27.308634,0.82434 -4.663828,34.83287 -4.663747,34.83298 H 37.014759 17.412417 Z m 93.954357,-110.5997 c 17.55993,-4.92192 26.59645,-16.84535 32.4101,-42.76406 2.11642,-9.43555 2.51191,-13.69709 2.57956,-27.79302 0.0766,-15.94768 -0.0303,-16.89045 -2.51085,-22.38996 -5.29623,-11.73734 -14.87724,-15.39375 -40.42769,-15.42864 -15.95214,-0.0222 -17.637979,0.20108 -18.074946,2.39024 -0.265426,1.32783 -3.488139,25.38323 -7.162231,53.45654 -3.674174,28.07333 -6.862538,51.81833 -7.085426,52.76675 -0.598337,2.5459 31.005933,2.35914 40.271483,-0.23775 z m 212.0932,110.5997 c 0.73484,-4.60794 34.38319,-258.80303 34.38319,-259.7448 0,-0.44327 20.65806,-0.58437 45.90683,-0.31441 43.71949,0.46883 46.25742,0.63548 53.26511,3.4982 27.21185,11.11466 40.23294,41.33692 36.43152,84.55858 -3.39753,38.62872 -16.66766,69.67909 -37.83403,88.52628 -14.19996,12.64412 -22.72792,15.06036 -56.78624,16.08933 l -27.2886,0.82434 -1.09645,7.58733 c -0.60289,4.17301 -2.69937,19.84785 -4.65844,34.83299 l -3.56192,27.24554 h -19.6279 -19.62791 z m 94.31554,-110.70158 c 18.70272,-5.2422 28.04751,-19.31391 33.39378,-50.28574 2.86091,-16.57361 2.30313,-34.638 -1.3169,-42.65174 -5.25966,-11.64335 -14.90469,-15.30154 -40.43436,-15.33632 -17.52255,-0.0222 -17.64184,-0.004 -18.13697,3.08004 -0.27376,1.70711 -3.59795,26.53853 -7.38633,55.18088 l -6.88794,52.07705 h 16.70239 c 10.91891,0 19.25221,-0.71435 24.06633,-2.06417 z m -236.99168,41.72541 c -0.0152,-0.94876 7.72047,-60.23065 17.18561,-131.73838 l 17.20935,-130.013942 19.45166,-0.0054 c 18.04656,-0.0054 19.42367,0.167756 19.06398,2.408127 -0.41103,2.556433 -8.85277,66.762905 -8.85277,67.329495 0,0.18221 12.18302,0.61104 27.07331,0.9521 23.68352,0.54215 27.97742,0.98098 34.29508,3.50343 13.21272,5.2752 20.59472,12.97296 24.43687,25.4821 1.95429,6.36261 2.20485,9.13603 2.08633,23.09552 -0.11827,13.93696 -1.15468,23.40671 -8.53017,77.94301 l -8.39556,62.07852 -19.77631,0.37217 -19.77638,0.37106 7.80251,-58.31157 c 9.08415,-67.88943 9.64996,-74.23704 7.22313,-81.02681 -3.41389,-9.55108 -5.60623,-10.33954 -30.11174,-10.82881 -20.40074,-0.40772 -21.84428,-0.27329 -22.32644,2.06929 -0.65522,3.18258 -19.42595,144.96731 -19.42595,146.73196 0,2.13429 -38.60316,1.72267 -38.63251,-0.41217 z"
     id="path825"
     inkscape:connector-curvature="0" />
</svg>
